<svg xmlns="http://www.w3.org/2000/svg" width="61" height="61" viewBox="0 0 61 61" fill="none"><path d="M30.1774 60.3548C27.4011 60.3548 24.7253 59.9926 22.1502 59.2684C19.5751 58.5438 17.1709 57.5281 14.9378 56.2205C12.7047 54.9128 10.6727 53.3435 8.84197 51.5128C7.01121 49.6822 5.44199 47.6501 4.1343 45.417C2.82661 43.1836 1.81064 40.7797 1.08639 38.2045C0.362128 35.6294 0 32.9537 0 30.1774C0 27.4011 0.362128 24.7253 1.08639 22.1502C1.81064 19.5751 2.82661 17.1709 4.1343 14.9378C5.44199 12.7047 7.01121 10.6727 8.84197 8.84197C10.6727 7.01121 12.7047 5.44199 14.9378 4.1343C17.1709 2.82661 19.5751 1.81064 22.1502 1.08639C24.7253 0.362128 27.4011 0 30.1774 0C34.3217 0 38.2347 0.794671 41.9164 2.38401C45.598 3.97335 48.7968 6.12601 51.5128 8.84197C54.2287 11.5579 56.3814 14.7567 57.9707 18.4384C59.5601 22.12 60.3548 26.033 60.3548 30.1774C60.3548 32.9537 59.9926 35.6294 59.2684 38.2046C58.5438 40.7794 57.5281 43.1835 56.2205 45.417C54.9128 47.6501 53.3435 49.682 51.5128 51.5128C49.6822 53.3435 47.6501 54.9131 45.417 56.2205C43.1836 57.5281 40.7797 58.5441 38.2044 59.2684C35.6294 59.9926 32.9537 60.3548 30.1774 60.3548ZM44.7229 17.7443H16.1147C15.8331 17.7443 15.5916 17.8348 15.3905 18.0159C15.1893 18.197 15.0887 18.4484 15.0887 18.7703V21.9691C15.0887 22.1301 15.149 22.2105 15.2698 22.2105L30.2981 30.7809L30.4191 30.8413C30.4993 30.8413 30.5599 30.8212 30.6002 30.7809L45.1456 22.2105C45.2258 22.1703 45.2865 22.1502 45.3267 22.1502C45.3667 22.1502 45.4273 22.1301 45.5078 22.0898C45.6687 22.0898 45.7492 22.0094 45.7492 21.8484V18.7703C45.7492 18.4484 45.6485 18.197 45.4471 18.0159C45.2457 17.8348 45.0045 17.7443 44.7229 17.7443ZM24.2023 30.5999C24.2425 30.5596 24.2626 30.4992 24.2626 30.4188C24.2626 30.2978 24.2224 30.2377 24.1419 30.2377L15.5112 25.2885C15.3905 25.2483 15.2899 25.2483 15.2094 25.2885C15.1289 25.2885 15.0887 25.3489 15.0887 25.4696V38.4459C15.0887 38.5669 15.149 38.6471 15.2698 38.6873H15.3905C15.4709 38.6873 15.5112 38.6672 15.5112 38.6269L24.2023 30.5999ZM34.704 31.5655C34.6637 31.4445 34.5629 31.4247 34.4019 31.5052L31.0824 33.4365C30.68 33.678 30.2578 33.678 29.815 33.4365L26.9179 31.8072C26.7972 31.7268 26.6966 31.7268 26.6161 31.8072L15.5712 42.0676C15.531 42.1075 15.5109 42.1883 15.5109 42.3087C15.5109 42.3489 15.5511 42.4094 15.6316 42.4897C15.873 42.5702 16.0339 42.6108 16.1144 42.6108H44.4209C44.5014 42.6108 44.5821 42.5705 44.6623 42.4897C44.6623 42.3288 44.6422 42.2285 44.602 42.188L34.704 31.5655ZM45.5678 25.0472H45.3267L37.1185 29.936C37.0383 29.936 36.9978 29.9963 36.9978 30.117C36.9575 30.1573 36.9776 30.2176 37.0578 30.2978L45.2661 39.1702C45.3465 39.2507 45.4069 39.2912 45.4471 39.2912H45.5678C45.6888 39.1702 45.7492 39.0901 45.7492 39.0498V25.2887C45.7489 25.2082 45.6885 25.1277 45.5678 25.0472Z" fill="#AFAFAF"></path></svg>