<svg width="57" height="58" viewBox="0 0 57 58" fill="none" xmlns="http://www.w3.org/2000/svg">
<path d="M56.6129 1.38816V55.7075C56.6129 56.1099 56.4716 56.4416 56.1903 56.7034C55.9087 56.9649 55.5666 57.0956 55.1642 57.0956H1.44851C1.04615 57.0956 0.704139 56.9652 0.422483 56.7034C0.140828 56.4416 0 56.1099 0 55.7075V1.38816C0 0.985794 0.140828 0.653843 0.422483 0.392306C0.704139 0.130769 1.04615 0 1.44851 0H55.1641C55.5665 0 55.9086 0.130769 56.1902 0.392306C56.4717 0.653843 56.6129 0.985794 56.6129 1.38816ZM39.3512 50.4567V30.2982H46.7145L47.0163 23.0556H39.3512V17.7444C39.3512 16.7385 39.5222 15.9438 39.8643 15.3604C40.2062 14.777 41.021 14.5054 42.3086 14.5456H46.835L47.0161 7.78586C46.4526 7.70539 45.8797 7.65509 45.2962 7.63497C44.7128 7.61486 44.1797 7.58468 43.6965 7.54444C43.1331 7.50421 42.5699 7.48409 42.0065 7.48409C40.2362 7.36338 38.7172 7.5545 37.4498 8.05746C36.1825 8.56041 35.1361 9.26455 34.3114 10.1699C33.4868 11.0752 32.8729 12.1113 32.4706 13.2781C32.0684 14.445 31.8673 15.632 31.8673 16.8391V23.0556H26.6767V30.2982H31.8673V50.4567H39.3512Z" fill="#AFAFAF"/>
</svg>
