<svg xmlns="http://www.w3.org/2000/svg" width="61" height="61" viewBox="0 0 61 61" fill="none"><path d="M47.1974 40.6187C47.64 40.1761 47.801 39.6933 47.6803 39.1702C47.64 38.929 47.5391 38.7077 47.3782 38.5065C47.2172 38.3053 47.0362 38.1243 46.835 37.9633L39.7131 33.7988L39.6528 33.7387C39.4114 33.6177 39.0895 33.5576 38.6871 33.5576C38.0433 33.5576 37.5404 33.7587 37.1782 34.1609L35.0658 36.2735C34.9448 36.3943 34.7842 36.4547 34.583 36.4547C34.1001 36.3742 33.5167 36.1526 32.8327 35.7908C32.2694 35.4689 31.5552 35.0162 30.6901 34.4327C29.825 33.8493 28.8292 32.994 27.7025 31.8674C26.8978 31.0227 26.1534 30.1775 25.4694 29.3325C24.9061 28.6485 24.383 27.9041 23.9002 27.0994C23.4173 26.2947 23.1558 25.5905 23.1156 24.987C23.1156 24.7858 23.1759 24.6248 23.2966 24.5041L25.1073 22.6935C25.4292 22.3716 25.6304 21.9793 25.7108 21.5166C25.7913 21.0538 25.7309 20.6213 25.5298 20.2189L21.6067 12.8557C21.2848 12.2119 20.802 11.89 20.1582 11.89C19.7558 11.89 19.3535 12.0509 18.9511 12.3728L14.1227 17.2616C13.8813 17.4627 13.6701 17.7545 13.489 18.1367C13.3079 18.5189 13.1973 18.871 13.157 19.1929V20.7018C13.157 20.7018 13.4186 21.9491 13.9417 24.4438C14.4647 26.9384 15.3801 28.8094 16.6878 30.0568C17.9955 31.304 19.9168 33.6579 22.4517 37.1183C24.6244 39.291 26.6564 41.0011 28.5475 42.2485C30.4386 43.4957 32.1386 44.4314 33.6474 45.055C35.1563 45.6784 36.4339 46.071 37.4797 46.2319C38.5259 46.3929 39.2702 46.4734 39.713 46.4734C39.9142 46.4734 40.0752 46.4631 40.1959 46.4431C40.3169 46.4231 40.3971 46.4127 40.4373 46.4127C40.7592 46.3725 41.101 46.2618 41.4633 46.0808C41.8254 45.8997 42.1269 45.6884 42.3686 45.447L47.1974 40.6187ZM30.1774 0C34.3217 0 38.2347 0.794671 41.9164 2.38401C45.598 3.97335 48.7968 6.12601 51.5128 8.84197C54.2287 11.5579 56.3814 14.7567 57.9707 18.4384C59.5601 22.12 60.3548 26.033 60.3548 30.1774C60.3548 32.9537 59.9926 35.6294 59.2684 38.2046C58.5438 40.7794 57.5281 43.1835 56.2205 45.417C54.9128 47.6501 53.3435 49.682 51.5128 51.5128C49.6822 53.3435 47.6501 54.9131 45.417 56.2205C43.1836 57.5281 40.7797 58.5441 38.2044 59.2684C35.6294 59.9926 32.9537 60.3548 30.1774 60.3548C27.4011 60.3548 24.7253 59.9926 22.1502 59.2684C19.5751 58.5438 17.1709 57.5281 14.9378 56.2205C12.7047 54.9128 10.6727 53.3435 8.84197 51.5128C7.01121 49.6822 5.44199 47.6501 4.1343 45.417C2.82661 43.1836 1.81064 40.7797 1.08639 38.2045C0.362128 35.6294 0 32.9537 0 30.1774C0 27.4011 0.362128 24.7253 1.08639 22.1502C1.81064 19.5751 2.82661 17.1709 4.1343 14.9378C5.44199 12.7047 7.01121 10.6727 8.84197 8.84197C10.6727 7.01121 12.7047 5.44199 14.9378 4.1343C17.1709 2.82661 19.5751 1.81064 22.1502 1.08639C24.7253 0.362128 27.4011 0 30.1774 0Z" fill="#AFAFAF"></path></svg>