<svg width="50" height="44" viewBox="0 0 50 44" fill="none" xmlns="http://www.w3.org/2000/svg">
<path d="M24.2659 28.1521C24.5761 28.4249 24.9634 28.5616 25.351 28.5616C25.7386 28.5616 26.126 28.4249 26.436 28.1521C26.8289 27.8061 36.0544 19.5831 36.0544 11.055C36.0544 5.15099 31.253 0.347656 25.3511 0.347656C19.4491 0.347656 14.6476 5.15099 14.6476 11.055C14.6473 19.5831 23.8731 27.8061 24.2659 28.1521ZM25.351 8.25734C26.8832 8.25734 28.1257 9.50957 28.1257 11.055C28.1257 12.6003 26.8832 13.8527 25.351 13.8527C23.8182 13.8527 22.5759 12.6001 22.5759 11.055C22.5759 9.50957 23.8182 8.25734 25.351 8.25734Z" fill="#AFAFAF"/>
<path d="M45.9177 28.1475L44.6779 23.8026C44.4766 23.0974 43.8323 22.6113 43.0993 22.6113H34.2505C33.9307 23.0869 33.5931 23.5643 33.2362 24.0443C30.7559 27.3766 28.2345 29.6307 27.955 29.8771C27.2351 30.511 26.3106 30.86 25.351 30.86C24.3922 30.86 23.4676 30.5113 22.7468 29.8768C22.4676 29.6307 19.9458 27.3763 17.4657 24.0443C17.1088 23.5643 16.7713 23.0867 16.4514 22.6113H7.60242C6.8694 22.6113 6.22517 23.0974 6.02388 23.8026L4.54614 28.9809L37.578 35.0311L45.9177 28.1475Z" fill="#AFAFAF"/>
<path d="M49.7491 41.5753L46.5815 30.4736L30.8649 43.6676H48.1707C48.6858 43.6676 49.1709 43.426 49.4811 43.0148C49.7913 42.6035 49.8903 42.0705 49.7491 41.5753Z" fill="#AFAFAF"/>
<path d="M8.92677 32.1197L3.91259 31.2012L0.952511 41.5753C0.811343 42.0704 0.910342 42.6035 1.22068 43.0146C1.53086 43.4258 2.01597 43.6674 2.53106 43.6674H8.92677V32.1197Z" fill="#AFAFAF"/>
<path d="M11.2251 32.541V43.6676H27.2901L35.293 36.9493L11.2251 32.541Z" fill="#AFAFAF"/>
</svg>
