<svg width="61" height="61" viewBox="0 0 61 61" fill="none" xmlns="http://www.w3.org/2000/svg">
<path d="M30.1738 36.2155C33.5029 36.2155 36.217 33.5062 36.217 30.1746C36.217 28.8595 35.7868 27.6453 35.0745 26.6534C33.977 25.1317 32.1927 24.1338 30.1774 24.1338C28.161 24.1338 26.3779 25.1305 25.2779 26.6522C24.5632 27.644 24.1366 28.8583 24.1354 30.1734C24.1317 33.505 26.8434 36.2155 30.1738 36.2155Z" fill="#AFAFAF"/>
<path d="M43.3652 22.785V17.7214V16.9678L42.6079 16.9702L37.5468 16.986L37.5662 22.8044L43.3652 22.785Z" fill="#AFAFAF"/>
<path d="M30.175 0C13.5366 0 0 13.5366 0 30.175C0 46.8122 13.5366 60.35 30.175 60.35C46.8122 60.35 60.35 46.8122 60.35 30.175C60.35 13.5366 46.8146 0 30.175 0ZM47.3361 26.6538V40.7045C47.3361 44.3643 44.3606 47.3385 40.7033 47.3385H19.6467C15.9882 47.3385 13.0139 44.3643 13.0139 40.7045V26.6538V19.6479C13.0139 15.9894 15.9882 13.0151 19.6467 13.0151H40.7021C44.3606 13.0151 47.3361 15.9894 47.3361 19.6479V26.6538Z" fill="#AFAFAF"/>
<path d="M39.562 30.1755C39.562 35.3497 35.3516 39.5625 30.175 39.5625C24.9984 39.5625 20.7892 35.3497 20.7892 30.1755C20.7892 28.9309 21.0372 27.7409 21.4796 26.6543H16.3564V40.705C16.3564 42.5209 17.8308 43.9916 19.6455 43.9916H40.7009C42.5131 43.9916 43.9899 42.5209 43.9899 40.705V26.6543H38.8643C39.3104 27.7409 39.562 28.9309 39.562 30.1755Z" fill="#AFAFAF"/>
</svg>
