<svg width="25" height="25" viewBox="0 0 25 25" fill="none" xmlns="http://www.w3.org/2000/svg">
<path d="M23.9901 11.4902H1.00986C0.452148 11.4902 0 11.9423 0 12.5001C0 13.0579 0.452148 13.51 1.00986 13.51H23.9901C24.5479 13.51 25 13.0579 25 12.5001C25 11.9424 24.5479 11.4902 23.9901 11.4902Z" fill="#0B0D0F"/>
<path d="M23.9901 3.82996H1.00986C0.452148 3.82996 0 4.2821 0 4.83982C0 5.39753 0.452148 5.84968 1.00986 5.84968H23.9901C24.5479 5.84968 25 5.39753 25 4.83982C25 4.2821 24.5479 3.82996 23.9901 3.82996Z" fill="#0B0D0F"/>
<path d="M23.9901 19.1503H1.00986C0.452148 19.1503 0 19.6024 0 20.1601C0 20.7179 0.452148 21.17 1.00986 21.17H23.9901C24.5479 21.17 25 20.7179 25 20.1601C25 19.6024 24.5479 19.1503 23.9901 19.1503Z" fill="#0B0D0F"/>
</svg>
