<svg width="25" height="25" viewBox="0 0 25 25" fill="none" xmlns="http://www.w3.org/2000/svg">
<path d="M23.9901 11.4902H1.00986C0.452148 11.4902 0 11.9423 0 12.5001C0 13.0579 0.452148 13.51 1.00986 13.51H23.9901C24.5479 13.51 25 13.0579 25 12.5001C25 11.9424 24.5479 11.4902 23.9901 11.4902Z" fill="#A81C1C"/>
<path d="M23.9901 3.83008H1.00986C0.452148 3.83008 0 4.28222 0 4.83994C0 5.39765 0.452148 5.8498 1.00986 5.8498H23.9901C24.5479 5.8498 25 5.39765 25 4.83994C25 4.28222 24.5479 3.83008 23.9901 3.83008Z" fill="#A81C1C"/>
<path d="M23.9901 19.1504H1.00986C0.452148 19.1504 0 19.6025 0 20.1602C0 20.718 0.452148 21.1701 1.00986 21.1701H23.9901C24.5479 21.1701 25 20.718 25 20.1602C25 19.6025 24.5479 19.1504 23.9901 19.1504Z" fill="#A81C1C"/>
</svg>
