<svg width="28" height="26" viewBox="0 0 28 26" fill="none" xmlns="http://www.w3.org/2000/svg">
<path fill-rule="evenodd" clip-rule="evenodd" d="M13 6.49998C9.36 6.49998 6.5 9.35998 6.5 13C6.5 16.64 9.36 19.5 13 19.5C16.64 19.5 19.5 16.64 19.5 13C19.5 9.35998 16.64 6.49998 13 6.49998V6.49998ZM13 -1.52588e-05C5.85 -1.52588e-05 0 5.84998 0 13C0 20.15 5.85 26 13 26C20.15 26 26 20.15 26 13C26 5.84998 20.15 -1.52588e-05 13 -1.52588e-05V-1.52588e-05ZM13 23.4C7.28001 23.4 2.60001 18.72 2.60001 13C2.60001 7.27999 7.28001 2.59999 13 2.59999C18.72 2.59999 23.4 7.27999 23.4 13C23.4 18.72 18.72 23.4 13 23.4V23.4Z" fill="#A81C1C"/>
</svg>
