<svg width="512" height="512" viewBox="0 0 512 512" fill="none" xmlns="http://www.w3.org/2000/svg">
<g clip-path="url(#clip0)">
<path d="M502.751 113.961L457.828 69.0379C451.668 62.8735 444.177 59.7902 435.371 59.7902C426.557 59.7902 419.066 62.8735 412.906 69.0379L196.212 286.06L99.0961 188.614C92.9295 182.447 85.4427 179.367 76.6369 179.367C67.8254 179.367 60.3386 182.447 54.1719 188.614L9.24887 233.538C3.08218 239.703 0 247.193 0 256.003C0 264.806 3.08218 272.302 9.24887 278.467L128.823 398.039L173.75 442.962C179.913 449.131 187.402 452.211 196.212 452.211C205.017 452.211 212.506 449.123 218.673 442.962L263.598 398.039L502.751 158.887C508.912 152.721 512 145.233 512 136.422C512.005 127.617 508.912 120.128 502.751 113.961Z" fill="#AFAFAF"/>
</g>
<defs>
<clipPath id="clip0">
<rect width="512" height="512" fill="white"/>
</clipPath>
</defs>
</svg>
