<svg width="44" height="65" viewBox="0 0 44 65" fill="none" xmlns="http://www.w3.org/2000/svg">
<path d="M4.97741 47.0562C6.66024 47.0562 8.02511 45.6925 8.02511 44.0085V45.0246H22.2475L22.2475 59.755C22.2475 61.718 23.8391 63.3102 25.8027 63.3102C27.7669 63.3102 29.3584 61.718 29.3584 59.755V34.8659L35.7951 36.2843C38.8236 37.194 42.016 35.4757 42.9252 32.4484C43.1455 31.7159 42.7293 30.9422 41.9963 30.7219L38.1964 29.5814C32.7811 27.9556 31.3331 26.9831 29.6293 22.2427L27.3268 15.5642L4.97741 15.5642V20.6924C3.14577 21.8764 1.92971 23.9325 1.92971 26.2762L1.92971 44.0085C1.92971 45.6925 3.29458 47.0562 4.97741 47.0562V47.0562Z" fill="#78C165"/>
<path d="M4.97744 47.0562V48.0723C7.2218 48.0717 9.04065 46.254 9.04124 44.0085C9.04124 43.7411 8.93253 43.4795 8.74362 43.2906C8.55411 43.1011 8.29253 42.993 8.02514 42.993C7.75775 42.993 7.49559 43.1011 7.30667 43.2906C7.11775 43.4795 7.00905 43.7411 7.00905 44.0085V45.0246C7.00905 45.2925 7.11775 45.5541 7.30667 45.743C7.49617 45.9325 7.75775 46.0407 8.02514 46.0407H21.2315L21.2315 59.755C21.232 62.2796 23.2776 64.3257 25.8027 64.3263C28.3284 64.3257 30.3734 62.2796 30.3746 59.755L30.3746 36.1303L35.5765 37.2766L35.7951 36.2849L35.5027 37.258C36.1474 37.4515 36.8013 37.5445 37.4442 37.544C40.3454 37.5451 43.0199 35.6588 43.8983 32.7402C43.9669 32.5129 44 32.2792 44 32.0496C44 31.0149 43.3286 30.0645 42.2893 29.7494L42.2887 29.7489L38.4882 28.6084C35.8003 27.8062 34.2146 27.1743 33.1694 26.2983C32.641 25.8577 32.2144 25.3479 31.8011 24.6463C31.3889 23.9458 30.9995 23.0524 30.585 21.8997L29.6294 22.2432L30.5896 21.9119L28.2872 15.2335C28.1465 14.8248 27.7593 14.5487 27.3269 14.5487L4.97744 14.5487C4.71005 14.5487 4.44847 14.6568 4.25896 14.8463C4.07005 15.0352 3.96134 15.2968 3.96134 15.5642V20.6924H4.97744L4.4258 19.839C2.31804 21.2004 0.914224 23.575 0.914224 26.2768L0.914224 44.0085C0.914224 46.254 2.73308 48.0717 4.97744 48.0723V46.0407C3.85555 46.0383 2.94758 45.1309 2.94583 44.0085L2.94583 26.2768C2.94583 24.29 3.97355 22.5537 5.52908 21.5457C5.81682 21.3591 5.99353 21.0353 5.99353 20.6924V16.5803L26.6026 16.5803L28.6691 22.574L28.6731 22.5862C29.1114 23.8034 29.541 24.8091 30.049 25.6752C30.8041 26.9744 31.7755 27.9457 33.0462 28.6735C34.3163 29.4071 35.8532 29.936 37.9046 30.5539L41.7045 31.695H41.7039C41.8638 31.7404 41.9678 31.8932 41.9684 32.0496L41.9527 32.1554C41.3423 34.1951 39.4671 35.5112 37.4442 35.5123C36.9966 35.5123 36.5415 35.4478 36.0881 35.3112L36.0142 35.292L29.5776 33.8737C29.2765 33.8074 28.9632 33.8807 28.7231 34.0737C28.4825 34.2672 28.343 34.5573 28.343 34.8654L28.343 59.755C28.3406 61.1565 27.2054 62.2918 25.8033 62.2947C24.4012 62.2918 23.2666 61.1565 23.2637 59.755L23.2637 45.0246C23.2637 44.7572 23.1555 44.4956 22.966 44.3067C22.7771 44.1172 22.5155 44.0091 22.2481 44.0091H9.04124C9.04124 43.7417 8.93312 43.4801 8.74362 43.2906C8.5547 43.1017 8.29312 42.9935 8.02572 42.9935C7.75833 42.9935 7.49617 43.1017 7.30725 43.2906C7.11833 43.4801 7.00963 43.7417 7.00963 44.0091C7.00788 45.1309 6.09991 46.0389 4.97802 46.0407V47.0562H4.97744Z" fill="#222325"/>
<path d="M27.1094 14.4731C27.1094 12.7891 22.737 11.4254 16.0434 11.4254C9.35045 11.4254 4.97741 12.7891 4.97741 14.4731C4.97741 16.1566 9.35045 17.5203 16.0434 17.5203C22.737 17.5203 27.1094 16.1566 27.1094 14.4731V14.4731Z" fill="#FF9999"/>
<path d="M27.1094 14.4731H28.1255C28.1272 14.0389 27.9767 13.6245 27.7529 13.2937C27.3558 12.7124 26.7827 12.3218 26.0863 11.9782C25.0371 11.4719 23.6588 11.0947 21.969 10.8255C20.2804 10.5587 18.2854 10.4093 16.0434 10.4093C12.6254 10.4111 9.78811 10.7523 7.72162 11.3412C6.68634 11.6394 5.84115 11.9916 5.1779 12.4572C4.84773 12.6926 4.55824 12.96 4.33386 13.2937C4.11065 13.6239 3.9601 14.0389 3.96184 14.4726C3.9601 14.9062 4.11065 15.3212 4.33386 15.6514C4.73147 16.2333 5.30404 16.6239 6.001 16.9669C7.05023 17.4732 8.42847 17.8504 10.1183 18.1202C11.8069 18.387 13.8019 18.5364 16.0439 18.5364C19.4619 18.5346 22.2992 18.1928 24.3657 17.6045C25.4015 17.3063 26.2467 16.9541 26.9094 16.4879C27.2396 16.253 27.5291 15.9857 27.7534 15.652C27.9767 15.3218 28.1272 14.9068 28.1255 14.4731H26.0939H26.1096L26.0939 14.4673V14.4731H26.1096L26.0939 14.4673C26.091 14.4766 26.0671 14.5359 25.9724 14.6318C25.8114 14.8016 25.4411 15.0504 24.8918 15.2776C24.0675 15.6247 22.8555 15.9403 21.3552 16.1583C19.8531 16.3774 18.0599 16.5047 16.0434 16.5042C12.7678 16.5059 10.0724 16.1653 8.27966 15.6508C7.38505 15.398 6.7189 15.0934 6.35268 14.8301C6.16842 14.7004 6.06378 14.5853 6.02309 14.5225L5.99345 14.4673L5.99287 14.4662L5.95159 14.4731H5.99345L5.99287 14.4662L5.95159 14.4731H5.99345H5.97659L5.99345 14.4784V14.4731H5.97659L5.99345 14.4784C5.99577 14.4697 6.01961 14.4104 6.11436 14.3139C6.27595 14.1447 6.64565 13.8953 7.19555 13.6681C8.01924 13.3216 9.23123 13.006 10.7315 12.788C12.2336 12.5683 14.0269 12.4415 16.0434 12.4415C19.3195 12.4404 22.0144 12.7804 23.8077 13.2949C24.7017 13.5483 25.3678 13.8523 25.734 14.1156C25.9183 14.2453 26.0229 14.3604 26.0642 14.4237L26.0939 14.479L26.0944 14.4801L26.1363 14.4731H26.0939L26.0944 14.4801L26.1363 14.4731H26.0939H27.1094Z" fill="#222325"/>
<path d="M12.0884 14.5481V9.46882C9.84459 9.46882 8.02515 7.64938 8.02515 5.4056C8.02515 3.16124 9.84459 1.34181 12.0884 1.34181C14.3327 1.34181 16.1522 3.16124 16.1522 5.4056C16.1522 3.16124 17.9716 1.34181 20.2154 1.34181C22.4597 1.34181 24.2792 3.16124 24.2792 5.4056C24.2792 7.64938 22.4597 9.46882 20.2154 9.46882L20.2154 14.5481" fill="white"/>
<path d="M13.1045 14.5481V9.46881C13.1045 9.20142 12.9964 8.93984 12.8069 8.75092C12.618 8.56142 12.3564 8.4533 12.0884 8.4533C10.4062 8.45039 9.04423 7.08843 9.04133 5.4056C9.04423 3.72335 10.4062 2.3608 12.0884 2.3579C13.7713 2.3608 15.1332 3.72335 15.1361 5.4056C15.1361 5.67357 15.2448 5.93515 15.4338 6.12407C15.6233 6.31357 15.8848 6.42169 16.1522 6.42169C16.4196 6.42169 16.6812 6.31357 16.8707 6.12407C17.0596 5.93515 17.1683 5.67357 17.1683 5.4056C17.1712 3.72335 18.5332 2.3608 20.2155 2.3579C21.8983 2.3608 23.2603 3.72335 23.2632 5.4056C23.2603 7.08843 21.8983 8.45039 20.2155 8.4533C19.9481 8.4533 19.6865 8.56142 19.4976 8.75092C19.3081 8.93984 19.1999 9.20142 19.1999 9.46881V14.5481C19.1999 15.1091 19.6545 15.5642 20.2155 15.5642C20.777 15.5642 21.2316 15.1091 21.2316 14.5481V9.46881H20.2155V10.4849C23.0213 10.4843 25.2942 8.2109 25.2953 5.4056C25.2942 2.59971 23.0213 0.32687 20.2155 0.326289C17.4102 0.326289 15.1373 2.59971 15.1361 5.4056C15.1361 5.67299 15.2448 5.93457 15.4338 6.12407C15.6233 6.31299 15.8848 6.42111 16.1522 6.42111C16.4196 6.42111 16.6812 6.31299 16.8707 6.12407C17.0596 5.93457 17.1683 5.67299 17.1683 5.4056C17.1672 2.59971 14.8943 0.32687 12.0884 0.326289C9.28314 0.326289 7.0103 2.59971 7.00914 5.4056C7.0103 8.2109 9.28314 10.4843 12.0884 10.4849V9.46881H11.0729V14.5481C11.0729 15.1091 11.5275 15.5642 12.0884 15.5642C12.65 15.5642 13.1045 15.1091 13.1045 14.5481V14.5481Z" fill="#222325"/>
<path d="M18.6918 50.1039C20.6554 50.1039 22.2476 48.5117 22.2476 46.5487V37.4056C22.2476 35.4426 20.6554 33.8499 18.6918 33.8499C16.7282 33.8499 15.1361 35.4426 15.1361 37.4056V46.5487C15.1361 48.5117 16.7282 50.1039 18.6918 50.1039Z" fill="#78C165"/>
<path d="M18.6919 50.1039V51.12C21.2176 51.1194 23.2625 49.0733 23.2631 46.5487V37.4056C23.2625 34.8811 21.2176 32.8349 18.6919 32.8343C16.1662 32.8343 14.1212 34.8811 14.1206 37.4056L14.1206 46.5487C14.1212 49.0733 16.1662 51.1194 18.6919 51.12V49.0884C17.2898 49.0855 16.1545 47.9502 16.1522 46.5487V37.4056C16.1545 36.0035 17.2898 34.8683 18.6919 34.866C20.0939 34.8683 21.2292 36.0035 21.2315 37.4056V46.5487C21.2292 47.9502 20.0939 49.0855 18.6919 49.0884V50.1039Z" fill="#222325"/>
<path d="M11.5808 49.0884C13.5444 49.0884 15.136 47.4956 15.136 45.5326L15.136 38.4217C15.136 36.4581 13.5444 34.8659 11.5808 34.8659C9.61664 34.8659 8.02507 36.4581 8.02507 38.4217V45.5326C8.02507 47.4956 9.61664 49.0884 11.5808 49.0884Z" fill="#78C165"/>
<path d="M11.581 49.0884V50.1039C14.1061 50.1033 16.1516 48.0572 16.1522 45.5326V38.4217C16.1516 35.8966 14.1061 33.851 11.581 33.8499C9.05526 33.8505 7.01028 35.8966 7.00912 38.4217L7.00912 45.5326C7.01028 48.0572 9.05526 50.1033 11.581 50.1039V48.0723C10.1783 48.07 9.04363 46.9347 9.0413 45.5326V38.4217C9.04363 37.0196 10.1783 35.8844 11.581 35.8815C12.983 35.8844 14.1177 37.0196 14.1206 38.4217L14.1206 45.5326C14.1177 46.9347 12.983 48.07 11.581 48.0723V49.0884Z" fill="#222325"/>
<path d="M4.97744 47.0562C6.66028 47.0562 8.02515 45.6925 8.02515 44.0085L8.02515 37.9137C8.02515 36.2297 6.66028 34.8659 4.97744 34.8659C3.29461 34.8659 1.92974 36.2297 1.92974 37.9137L1.92974 44.0085C1.92974 45.6925 3.29461 47.0562 4.97744 47.0562V47.0562Z" fill="#78C165"/>
<path d="M4.97746 47.0562V48.0723C7.22182 48.0717 9.04068 46.254 9.04126 44.0085L9.04126 37.9137C9.04068 35.6687 7.22182 33.8504 4.97746 33.8499C2.7331 33.8504 0.914249 35.6681 0.914249 37.9137L0.914249 44.0085C0.914249 46.254 2.7331 48.0717 4.97746 48.0723V46.0407C3.85557 46.0383 2.9476 45.131 2.94586 44.0085V37.9137C2.9476 36.7912 3.85557 35.8838 4.97746 35.8815C6.09935 35.8838 7.00733 36.7912 7.00907 37.9137V44.0085C7.00733 45.131 6.09935 46.0383 4.97746 46.0407V47.0562Z" fill="#222325"/>
<path d="M29.3585 34.866L26.3108 33.8499Z" fill="#78C165"/>
<path d="M29.6799 33.9022L26.6322 32.8861C26.0998 32.7088 25.5249 32.9965 25.347 33.529C25.1697 34.0609 25.4574 34.6363 25.9899 34.8136L29.037 35.8297C29.5695 36.007 30.145 35.7193 30.3223 35.1874C30.5001 34.6549 30.2124 34.0795 29.6799 33.9022Z" fill="#222325"/>
</svg>
